<svg width="70px" height="64px" viewBox="0 0 70 64" version="1.1" xmlns="http://www.w3.org/2000/svg" xmlns:xlink="http://www.w3.org/1999/xlink">
    <!-- Generator: Sketch 50.2 (55047) - http://www.bohemiancoding.com/sketch -->
    <desc>Created with Sketch.</desc>
    <defs></defs>
    <g id="🛠--Symbols-&amp;-Components" stroke="none" stroke-width="1" fill="none" fill-rule="evenodd">
        <g id="Atoms-/-icons-/-illustrated-/-using-computer" transform="translate(-6.000000, -9.000000)" fill="#404F54" fill-rule="nonzero">
            <g id="003-student" transform="translate(6.000000, 9.000000)">
                <path d="M35,44.5152148 C33.1063086,44.5152148 31.5657617,46.0557617 31.5657617,47.9494531 C31.5657617,49.8431445 33.1063086,51.3836914 35,51.3836914 C36.8936914,51.3836914 38.4342383,49.8431445 38.4342383,47.9494531 C38.4342383,46.0557617 36.8936914,44.5152148 35,44.5152148 Z M35,49.1916797 C34.3150391,49.1916797 33.7577734,48.6344141 33.7577734,47.9494531 C33.7577734,47.2644922 34.3150391,46.7072266 35,46.7072266 C35.6849609,46.7072266 36.2422266,47.2644922 36.2422266,47.9494531 C36.2422266,48.6344141 35.6849609,49.1916797 35,49.1916797 Z" id="Shape"></path>
                <path d="M67.7348437,56.2063086 L53.6597852,56.2063086 L53.6597852,40.4635547 C53.6597852,38.1258008 52.2653906,36.0342773 50.1074219,35.1352148 L42.5795508,31.9986133 C44.9730859,31.5339062 47.1810937,30.8459375 49.0258398,29.9837891 C49.9653711,29.5447852 50.5676172,28.5966406 50.5600977,27.5682422 C50.4961133,18.907793 49.5483789,12.8298242 47.5777148,8.44046875 C45.0898438,2.89912109 40.858125,0.0892773437 35,0.0892773437 C29.141875,0.0892773437 24.9101562,2.89912109 22.4222852,8.44046875 C20.4516211,12.8298242 19.5038867,18.9079297 19.4399023,27.5682422 C19.4322461,28.5965039 20.0344922,29.5446484 20.9741602,29.9837891 C22.8189062,30.8458008 25.0269141,31.5337695 27.4204492,31.9986133 L19.8927148,35.1352148 C17.7347461,36.0344141 16.3403516,38.1258008 16.3403516,40.4635547 L16.3403516,56.2063086 L2.26515625,56.2063086 C1.01609375,56.2063086 0,57.2224023 0,58.4713281 L0,60.8094922 C0,62.0585547 1.01609375,63.0746484 2.26515625,63.0746484 L67.7348437,63.0746484 C68.9839062,63.0746484 70,62.0585547 70,60.8094922 L70,58.4713281 C70,57.2224023 68.9839062,56.2063086 67.7348437,56.2063086 Z M44.069375,34.9941211 L49.2642773,37.1586523 C50.6028906,37.7163281 51.4677734,39.0135156 51.4677734,40.4635547 L51.4677734,56.2063086 L48.7228711,56.2063086 C48.8729883,55.8207617 48.95625,55.4021289 48.95625,54.964082 L48.95625,40.9348242 C48.95625,39.0411328 47.4157031,37.5005859 45.5220117,37.5005859 L41.7980664,37.5005859 C42.5902148,36.7255273 43.3495508,35.8886719 44.069375,34.9941211 Z M30.9301563,30.8027344 L30.9301563,30.1400586 L32.4607227,30.9903125 C33.2557422,31.4319141 34.1278711,31.6527148 34.9998633,31.6527148 C35.8718555,31.6527148 36.7441211,31.4319141 37.5390039,30.9903125 L39.0694336,30.1400586 L39.0694336,30.8027344 C39.0694336,32.0835156 39.833418,33.2292188 41.0154883,33.7218164 L41.9551563,34.1133789 C40.8801367,35.3877344 39.719668,36.5225 38.4967187,37.5007227 L31.5028711,37.5007227 C30.2797852,36.5225 29.1193164,35.3877344 28.0444336,34.1133789 L28.9841016,33.7218164 C30.1663086,33.2292188 30.9301563,32.0833789 30.9301563,30.8027344 Z M28.1445117,26.0845703 C27.2654102,25.5962109 26.6862695,24.706582 26.5950781,23.7049805 L25.8576172,15.5930469 C28.6524219,15.272168 36.1031836,14.2445898 40.700625,11.9970703 C41.2763477,13.0175391 42.3579297,14.4651172 44.1663086,15.3264453 L43.4046484,23.7049805 C43.3135937,24.706582 42.7344531,25.5962109 41.8553516,26.0845703 L36.4746484,29.0739258 C35.55125,29.5868945 34.44875,29.5868945 33.5252148,29.0739258 L28.1445117,26.0845703 Z M46.7641016,40.9349609 L46.7641016,54.9642188 C46.7641016,55.6491797 46.2068359,56.2064453 45.521875,56.2064453 L24.478125,56.2064453 C23.7931641,56.2064453 23.2358984,55.6491797 23.2358984,54.9642188 L23.2358984,40.9348242 C23.2358984,40.2498633 23.7931641,39.6925977 24.478125,39.6925977 L45.521875,39.6925977 C46.2068359,39.6927344 46.7641016,40.25 46.7641016,40.9349609 Z M21.9017969,27.9976758 C21.7365039,27.9205664 21.6305469,27.7582812 21.6317773,27.5845117 C21.6934375,19.2386523 22.5799219,13.4406836 24.4217969,9.33830078 C26.5539258,4.58978516 30.0140039,2.28142578 35,2.28142578 C39.9859961,2.28142578 43.4460742,4.58978516 45.5780664,9.3384375 C47.4199414,13.440957 48.3064258,19.2386523 48.3680859,27.5846484 C48.3694531,27.758418 48.2633594,27.9205664 48.0979297,27.9979492 C46.1872852,28.8907227 43.829707,29.5832031 41.2617187,30.0088086 L41.2617187,28.9220312 L42.9199805,28.0008203 C44.4337305,27.1598633 45.4310938,25.6280664 45.5879102,23.9034961 L46.4232617,14.7157227 C46.4693359,14.2091797 46.1607617,13.7375 45.6782812,13.5767187 C43.1588281,12.7368555 42.2460938,10.1584766 42.2388477,10.1372852 C42.1335742,9.821875 41.8911719,9.57126953 41.5793164,9.45601562 C41.2674609,9.34076172 40.9201953,9.37302734 40.6351367,9.54419922 C35.7456641,12.4779102 24.680332,13.5150586 24.5691797,13.5251758 C23.9663867,13.5801367 23.5220508,14.1130664 23.576875,14.7158594 L24.4122266,23.9036328 C24.569043,25.6282031 25.5662695,27.1598633 27.0801563,28.000957 L28.7382812,28.9220312 L28.7382812,30.0088086 C26.1700195,29.5829297 23.8124414,28.8904492 21.9017969,27.9976758 Z M18.5323633,40.4635547 C18.5323633,39.0135156 19.3972461,37.7163281 20.7357227,37.1586523 L25.930625,34.9941211 C26.6504492,35.8888086 27.4097852,36.7255273 28.2019336,37.5007227 L24.478125,37.5007227 C22.5844336,37.5007227 21.0438867,39.0412695 21.0438867,40.9349609 L21.0438867,54.9642187 C21.0438867,55.4021289 21.1271484,55.8208984 21.2772656,56.2064453 L18.5323633,56.2064453 L18.5323633,40.4635547 Z M67.7349805,60.8826367 L2.26515625,60.8826367 C2.22482422,60.8826367 2.19214844,60.8499609 2.19214844,60.8096289 L2.19214844,58.4714648 C2.19214844,58.4311328 2.22482422,58.398457 2.26515625,58.398457 L67.7348438,58.398457 C67.7751758,58.398457 67.8078516,58.4311328 67.8078516,58.4714648 L67.8078516,60.8096289 C67.8079883,60.8499609 67.7753125,60.8826367 67.7349805,60.8826367 Z" id="Shape"></path>
            </g>
        </g>
    </g>
</svg>