<svg width="64" height="17" viewBox="0 0 64 17" xmlns="http://www.w3.org/2000/svg"><title>Slice 1</title><desc>Created with Sketch.</desc><g fill-rule="nonzero" fill="none"><path d="M49.2 4.2h-3.4c-.2 0-.4.2-.5.4l-1.4 8.8c0 .2.1.3.3.3h1.8c.2 0 .3-.1.3-.3l.4-2.5c0-.2.2-.4.5-.4h1.1c2.3 0 3.6-1.1 3.9-3.3.2-.9 0-1.7-.4-2.2-.6-.5-1.5-.8-2.6-.8m.4 3.3c-.2 1.2-1.1 1.2-2 1.2h-.6l.4-2.3c0-.1.1-.2.3-.2h.2c.6 0 1.2 0 1.5.4.2.1.2.4.2.9" id="Shape" fill="#139AD6"/><path d="M24.7 4.2h-3.4c-.2 0-.4.2-.5.4l-1.4 8.8c0 .2.1.3.3.3h1.6c.2 0 .4-.2.5-.4l.4-2.4c0-.2.2-.4.5-.4h1.1c2.3 0 3.6-1.1 3.9-3.3.2-.9 0-1.7-.4-2.2-.6-.5-1.4-.8-2.6-.8m.4 3.3c-.2 1.2-1.1 1.2-2 1.2h-.5l.4-2.3c0-.1.1-.2.3-.2h.2c.6 0 1.2 0 1.5.4.1.1.2.4.1.9M35 7.4h-1.6c-.1 0-.3.1-.3.2l-.1.5-.1-.2c-.4-.5-1.1-.7-1.9-.7-1.8 0-3.4 1.4-3.7 3.3-.2 1 .1 1.9.6 2.5.5.6 1.2.8 2.1.8 1.5 0 2.3-.9 2.3-.9l-.1.5c0 .2.1.3.3.3h1.5c.2 0 .4-.2.5-.4l.9-5.6c-.1-.1-.3-.3-.4-.3m-2.3 3.2c-.2.9-.9 1.6-1.9 1.6-.5 0-.9-.2-1.1-.4-.2-.3-.3-.7-.3-1.2.1-.9.9-1.6 1.8-1.6.5 0 .8.2 1.1.4.3.3.4.8.4 1.2" id="Shape" fill="#263B80"/><path d="M59.4 7.4h-1.6c-.1 0-.3.1-.3.2l-.1.5-.1-.2c-.4-.5-1.1-.7-1.9-.7-1.8 0-3.4 1.4-3.7 3.3-.2 1 .1 1.9.6 2.5.5.6 1.2.8 2.1.8 1.5 0 2.3-.9 2.3-.9l-.1.5c0 .2.1.3.3.3h1.5c.2 0 .4-.2.5-.4l.9-5.6c-.1-.1-.2-.3-.4-.3m-2.3 3.2c-.2.9-.9 1.6-1.9 1.6-.5 0-.9-.2-1.1-.4-.2-.3-.3-.7-.3-1.2.1-.9.9-1.6 1.8-1.6.5 0 .8.2 1.1.4.4.3.5.8.4 1.2" id="Shape" fill="#139AD6"/><g><path d="M43.7 7.4h-1.7c-.2 0-.3.1-.4.2l-2.2 3.4-1-3.2c-.1-.2-.2-.3-.5-.3h-1.6c-.2 0-.3.2-.3.4l1.8 5.3-1.7 2.4c-.1.2 0 .5.2.5h1.6c.2 0 .3-.1.4-.2l5.5-7.9c.3-.3.1-.6-.1-.6" id="Shape" fill="#263B80"/><path d="M61.3 4.5l-1.4 9c0 .2.1.3.3.3h1.4c.2 0 .4-.2.5-.4l1.4-8.8c0-.2-.1-.3-.3-.3h-1.6c-.1-.1-.2 0-.3.2" id="Shape" fill="#139AD6"/><path d="M12 1.2c-.7-.8-2-1.2-3.8-1.2h-5c-.3 0-.6.3-.7.6l-2 13.1c0 .3.2.5.4.5h3.1l.8-4.9v.2c.1-.3.4-.6.7-.6h1.5c2.9 0 5.1-1.2 5.8-4.5v-.3c.1-1.3-.1-2.1-.8-2.9" id="Shape" fill="#263B80"/></g><path d="M12.7 4.1v.3c-.7 3.4-2.9 4.5-5.8 4.5h-1.5c-.3 0-.6.3-.7.6l-1 6.1c0 .2.1.4.4.4h2.6c.3 0 .6-.2.6-.5v-.1l.5-3.1v-.2c0-.3.3-.5.6-.5h.4c2.5 0 4.5-1 5-4 .2-1.2.1-2.3-.5-3-.1-.2-.3-.4-.6-.5" id="Shape" fill="#139AD6"/><path d="M12 3.8l-.3-.1c-.1 0-.2 0-.3-.1-.4-.1-.8-.1-1.3-.1h-3.9c-.1 0-.2 0-.3.1-.2.1-.3.3-.3.5l-.8 5.2v.2c.1-.3.4-.6.7-.6h1.5c2.9 0 5.1-1.2 5.8-4.5 0-.1 0-.2.1-.3-.2-.1-.3-.2-.5-.2-.3-.1-.3-.1-.4-.1" fill="#232C65"/></g></svg>