<svg width="53" height="16" viewBox="0 0 53 16" xmlns="http://www.w3.org/2000/svg"><title>Slice 1</title><desc>Created with Sketch.</desc><g fill-rule="nonzero" fill="none"><path id="Shape" fill="#005098" d="M18.382 15.77l2.638-15.404h4.222l-2.642 15.404zM37.907.746c-.836-.312-2.146-.647-3.783-.647-4.17 0-7.107 2.089-7.133 5.084-.024 2.213 2.097 3.449 3.698 4.185 1.643.755 2.196 1.237 2.189 1.911-.012 1.032-1.313 1.503-2.526 1.503-1.688 0-2.586-.232-3.972-.808l-.543-.244-.593 3.449c.985.43 2.807.802 4.701.821 4.437 0 7.315-2.065 7.348-5.263.017-1.751-1.107-3.084-3.542-4.184-1.476-.713-2.38-1.188-2.371-1.91 0-.64.765-1.325 2.418-1.325 1.379-.022 2.38.278 3.157.59l.38.178.571-3.339zM48.729.381h-3.261c-1.011 0-1.766.274-2.21 1.277l-6.267 14.118h4.432s.723-1.898.888-2.315l5.405.007c.125.539.512 2.308.512 2.308h3.917l-3.416-15.395zm-5.204 9.929c.349-.888 1.681-4.307 1.681-4.307l.56-1.471.286 1.328.977 4.449h-3.504zM14.843.377l-4.132 10.505-.442-2.134c-.767-2.462-3.164-5.128-5.844-6.463l3.778 13.473 4.465-.006 6.645-15.375h-4.47z"/><path d="M6.878.368h-6.807l-.052.32c5.294 1.276 8.798 4.357 10.25 8.06l-1.478-7.08c-.255-.976-.996-1.266-1.913-1.3z" fill="#F6A500"/></g></svg>