<svg width="28" height="22" viewBox="0 0 28 22" xmlns="http://www.w3.org/2000/svg"><title>Slice 1</title><desc>Created with Sketch.</desc><g fill="none"><g><path d="M26.265 8.026c0 4.408-3.63 7.981-8.108 7.981-4.478 0-8.108-3.573-8.108-7.981 0-4.408 3.63-7.981 8.108-7.981 4.478 0 8.108 3.573 8.108 7.981z" fill="#F79F1A"/><path d="M16.262 8.026c0 4.408-3.63 7.981-8.108 7.981-4.478 0-8.108-3.573-8.108-7.981 0-4.408 3.63-7.981 8.108-7.981 4.478 0 8.108 3.573 8.108 7.981z" fill="#EA001B"/><path d="M13.156 1.744c-1.892 1.461-3.106 3.731-3.106 6.282 0 2.55 1.214 4.823 3.106 6.284 1.892-1.461 3.106-3.733 3.106-6.284 0-2.55-1.214-4.821-3.106-6.282z" fill="#FF5F01"/></g><g fill-rule="nonzero" fill="#000"><path d="M1.85 19.955h-.46v-2.109h.451v.257s.396-.314.631-.31c.458.008.731.39.731.39s.222-.39.722-.39c.74 0 .848.665.848.665v1.489h-.442v-1.312s.002-.399-.478-.399c-.496 0-.541.399-.541.399v1.312h-.46v-1.321s-.044-.417-.46-.417c-.54 0-.55.425-.55.425l.009 1.321z"/><path d="M15.842 17.792c-.235-.004-.631.31-.631.31v-.256h-.452v2.109h.46l-.009-1.32s.01-.425.55-.425c.1 0 .178.024.24.061v-.002l.15-.411c-.09-.037-.193-.064-.309-.066z"/><path d="M22.323 17.792c-.235-.004-.631.31-.631.31v-.256h-.452v2.109h.46l-.009-1.32s.01-.425.55-.425c.1 0 .178.024.24.061v-.002l.15-.411c-.09-.037-.193-.064-.309-.066z"/><path d="M6.261 17.784c-.689 0-1.053.608-1.055 1.116-.002.521.415 1.121 1.074 1.121.385 0 .701-.279.701-.279l-.001.215h.453v-2.112h-.454v.266s-.297-.328-.718-.328zm.088.43c.37 0 .67.316.67.705 0 .389-.3.704-.67.704-.37 0-.668-.314-.668-.704 0-.389.299-.705.668-.705z"/><path d="M19.468 17.784c-.689 0-1.053.608-1.055 1.116-.002.521.415 1.121 1.074 1.121.385 0 .701-.279.701-.279l-.001.215h.453v-2.112h-.454v.266s-.297-.328-.718-.328zm.088.43c.37 0 .67.316.67.705 0 .389-.3.704-.67.704-.37 0-.668-.314-.668-.704 0-.389.299-.705.668-.705z"/><path d="M23.816 17.784c-.689 0-1.053.608-1.055 1.116-.002.521.415 1.121 1.074 1.121.385 0 .701-.279.701-.279l-.001.215h.453v-2.945h-.454v1.1s-.297-.328-.718-.328zm.088.43c.37 0 .67.316.67.705 0 .389-.3.704-.67.704-.37 0-.668-.314-.668-.704 0-.389.299-.705.668-.705z"/><path d="M8.815 20.026c-.469 0-.902-.284-.902-.284l.198-.301s.41.186.704.186c.191 0 .51-.061.514-.248.004-.198-.537-.257-.537-.257s-.807-.011-.807-.665c0-.411.403-.674.92-.674.299 0 .857.257.857.257l-.226.346s-.431-.169-.659-.177c-.192-.007-.424.084-.424.248 0 .447 1.344-.035 1.344.869 0 .593-.547.7-.983.7z"/><path d="M10.545 17.234v.613h-.4v.444h.4v1.061s-.035.717.75.717c.217 0 .642-.158.642-.158l-.182-.461s-.169.142-.36.137c-.363-.009-.353-.237-.353-.237v-1.059h.748v-.444h-.748v-.613h-.497z"/><path d="M13.27 17.81c-.738 0-1.107.597-1.104 1.116.003.533.336 1.133 1.148 1.133.348 0 .836-.3.836-.3l-.21-.359s-.333.232-.626.232c-.586 0-.624-.563-.624-.563h1.57s.117-1.26-.99-1.26zm-.067.414h.055c.552 0 .549.513.549.513h-1.117s-.026-.483.513-.513z"/><path d="M17.94 19.395l.211.414s-.334.213-.708.213c-.775 0-1.206-.573-1.206-1.116 0-.852.685-1.103 1.148-1.103.42 0 .785.238.785.238l-.236.414s-.143-.219-.561-.219c-.418 0-.638.354-.638.689 0 .376.256.696.644.696.304 0 .561-.226.561-.226z"/></g></g></svg>