<?xml version="1.0" encoding="iso-8859-1"?>
<!-- Generator: Adobe Illustrator 19.0.0, SVG Export Plug-In . SVG Version: 6.00 Build 0)  -->
<svg version="1.1" id="Capa_1" xmlns="http://www.w3.org/2000/svg" xmlns:xlink="http://www.w3.org/1999/xlink" x="0px" y="0px"
	 viewBox="0 0 512 512" style="enable-background:new 0 0 512 512;" xml:space="preserve">
<g>
	<g>
		<path d="M503.649,205.825c-7.445-11.262-18.841-18.892-32.09-21.485c-13.252-2.595-26.68,0.176-37.817,7.799l-84.525,57.809
			c-7.754-11.87-21.15-19.737-36.356-19.737h-53.556c-9.067-8.861-29.363-22.7-67.679-22.7c-48.811,0-69.786,20.664-74.036,25.514
			l-16.984,17.362l-9.117-17.463L0,280.688l88.389,169.302l91.489-47.764l-9.47-18.138H336.76l154.221-110.022
			C512.998,258.359,518.561,228.384,503.649,205.825z M101.123,409.43L40.561,293.423l38.194-19.94l60.563,116.006L101.123,409.43z
			 M473.525,249.593L327.137,354.026H154.713l-39.474-75.61l24.191-24.729l0.335-0.21l0.563-0.779
			c1.58-1.673,15.403-15.126,51.298-15.126c34.715,0,46.822,14.024,48.283,15.897l3.783,6.803h69.169
			c7.358,0,13.344,5.986,13.344,13.344s-5.987,13.344-13.344,13.344h-90.282v30.06h90.282c21.023,0,38.598-15.025,42.563-34.898
			l95.291-65.172c4.44-3.039,9.794-4.141,15.07-3.109c5.28,1.033,9.821,4.074,12.787,8.561
			C484.514,231.39,482.297,243.334,473.525,249.593z"/>
	</g>
</g>
<g>
	<g>
		<path d="M341.296,62.011c-32.113,0-59.048,22.512-65.903,52.578H121.654l-0.003,49.218h30.06v-19.158h26.553v25.206h30.06v-25.206
			h67.068c6.855,30.067,33.79,52.579,65.903,52.579c37.279,0,67.609-30.329,67.609-67.609
			C408.905,92.34,378.576,62.011,341.296,62.011z M341.296,167.167c-20.705,0-37.547-16.844-37.547-37.549
			c0.001-20.704,16.844-37.548,37.547-37.548s37.549,16.844,37.549,37.548C378.844,150.323,362,167.167,341.296,167.167z"/>
	</g>
</g>
<g>
</g>
<g>
</g>
<g>
</g>
<g>
</g>
<g>
</g>
<g>
</g>
<g>
</g>
<g>
</g>
<g>
</g>
<g>
</g>
<g>
</g>
<g>
</g>
<g>
</g>
<g>
</g>
<g>
</g>
</svg>
