<svg width="63px" height="63px" xmlns="http://www.w3.org/2000/svg" xmlns:xlink="http://www.w3.org/1999/xlink" viewBox="0 0 50 50" version="1.1">
  <g id="surface1">
    <path style=" " d="M 2.8125 3 C 1.277344 3 0 4.277344 0 5.8125 L 0 10.8125 C -0.00390625 10.855469 -0.00390625 10.894531 0 10.9375 L 0 46 C 0 46.550781 0.449219 47 1 47 L 49 47 C 49.550781 47 50 46.550781 50 46 L 50 11 C 50 10.96875 50 10.9375 50 10.90625 L 50 5.8125 C 50 4.277344 48.722656 3 47.1875 3 Z M 2.8125 5 L 47.1875 5 C 47.652344 5 48 5.347656 48 5.8125 L 48 10 L 2 10 L 2 5.8125 C 2 5.347656 2.347656 5 2.8125 5 Z M 2 12 L 48 12 L 48 45 L 2 45 Z M 10 17 L 10 19 L 40 19 L 40 17 Z M 10 25 L 10 27 L 13 27 L 13 25 Z M 17 25 L 17 27 L 40 27 L 40 25 Z M 10 31 L 10 33 L 13 33 L 13 31 Z M 17 31 L 17 33 L 40 33 L 40 31 Z M 10 37 L 10 39 L 13 39 L 13 37 Z M 17 37 L 17 39 L 40 39 L 40 37 Z "></path>
  </g>
</svg>
