<svg
  xmlns="http://www.w3.org/2000/svg"
  height="63px"
  viewBox="0 0 512.00003 512.00003"
  width="63px">
  <path d="m327.507812 211.625-73.488281-52.246094c-9.226562-6.722656-21.46875-7.613281-31.574219-2.304687-10.972656 5.777343-17.785156 17.210937-17.644531 29.609375v104.5c-.171875 12.414062 6.632813 23.875 17.613281 29.667968 10.101563 5.308594 22.34375 4.414063 31.570313-2.300781l73.492187-52.25c8.691407-6.402343 13.824219-16.554687 13.824219-27.351562 0-10.792969-5.132812-20.949219-13.824219-27.347657zm-9.886718 40.789062-73.5 52.226563c-4.035156 3.007813-9.441406 3.417969-13.882813 1.050781-5.296875-2.878906-8.53125-8.484375-8.371093-14.507812v-104.5c-.160157-6.023438 3.074218-11.628906 8.371093-14.507813 4.441407-2.363281 9.847657-1.957031 13.882813 1.050781l73.5 52.25c4.1875 3.199219 6.644531 8.167969 6.644531 13.441407 0 5.269531-2.457031 10.238281-6.644531 13.4375zm0 0"></path><path d="m452.265625 384h-51.199219c-4.710937 0-8.53125 3.820312-8.53125 8.535156 0 4.710938 3.820313 8.53125 8.53125 8.53125h51.199219c4.714844 0 8.535156-3.820312 8.535156-8.53125 0-4.714844-3.820312-8.535156-8.535156-8.535156zm0 0"></path><path d="m452.265625 418.132812h-51.199219c-4.710937 0-8.53125 3.820313-8.53125 8.535157 0 4.710937 3.820313 8.53125 8.53125 8.53125h51.199219c4.714844 0 8.535156-3.820313 8.535156-8.53125 0-4.714844-3.820312-8.535157-8.535156-8.535157zm0 0"></path><path d="m452.265625 452.265625h-51.199219c-4.710937 0-8.53125 3.820313-8.53125 8.535156 0 4.710938 3.820313 8.53125 8.53125 8.53125h51.199219c4.714844 0 8.535156-3.820312 8.535156-8.53125 0-4.714843-3.820312-8.535156-8.535156-8.535156zm0 0"></path><path d="m358.398438 418.132812h-247.464844v-8.53125c0-4.714843-3.820313-8.535156-8.535156-8.535156-4.710938 0-8.53125 3.820313-8.53125 8.535156v8.53125h-34.132813c-4.714844 0-8.535156 3.820313-8.535156 8.535157 0 4.710937 3.820312 8.53125 8.535156 8.53125h34.132813v8.535156c0 4.710937 3.820312 8.53125 8.53125 8.53125 4.714843 0 8.535156-3.820313 8.535156-8.53125v-8.535156h247.464844c4.714843 0 8.535156-3.820313 8.535156-8.53125 0-4.714844-3.820313-8.535157-8.535156-8.535157zm0 0"></path><path d="m469.332031 0h-426.664062c-23.554688.0273438-42.6406252 19.113281-42.667969 42.667969v426.664062c.0273438 23.554688 19.113281 42.640625 42.667969 42.667969h426.664062c23.554688-.027344 42.640625-19.113281 42.667969-42.667969v-426.664062c-.027344-23.554688-19.113281-42.6406252-42.667969-42.667969zm-426.664062 17.066406h426.664062c14.140625 0 25.601563 11.460938 25.601563 25.601563v25.597656h-477.867188v-25.597656c0-14.140625 11.460938-25.601563 25.601563-25.601563zm426.664062 477.867188h-426.664062c-14.140625 0-25.601563-11.460938-25.601563-25.601563v-384h477.867188v384c0 14.140625-11.460938 25.601563-25.601563 25.601563zm0 0"></path><path d="m51.199219 51.199219h8.535156c4.710937 0 8.53125-3.820313 8.53125-8.53125 0-4.714844-3.820313-8.535157-8.53125-8.535157h-8.535156c-4.710938 0-8.53125 3.820313-8.53125 8.535157 0 4.710937 3.820312 8.53125 8.53125 8.53125zm0 0"></path><path d="m93.867188 51.199219h8.53125c4.714843 0 8.535156-3.820313 8.535156-8.53125 0-4.714844-3.820313-8.535157-8.535156-8.535157h-8.53125c-4.714844 0-8.535157 3.820313-8.535157 8.535157 0 4.710937 3.820313 8.53125 8.535157 8.53125zm0 0"></path><path d="m136.535156 51.199219h8.53125c4.714844 0 8.535156-3.820313 8.535156-8.53125 0-4.714844-3.820312-8.535157-8.535156-8.535157h-8.53125c-4.714844 0-8.535156 3.820313-8.535156 8.535157 0 4.710937 3.820312 8.53125 8.535156 8.53125zm0 0"></path><path d="m256 110.933594c-70.691406 0-128 57.308594-128 128s57.308594 128 128 128 128-57.308594 128-128c-.078125-70.660156-57.339844-127.921875-128-128zm0 238.933594c-61.265625 0-110.933594-49.667969-110.933594-110.933594s49.667969-110.933594 110.933594-110.933594 110.933594 49.667969 110.933594 110.933594c-.070313 61.238281-49.695313 110.863281-110.933594 110.933594zm0 0"></path>
</svg>
